<?xml version="1.0" standalone="no"?>
<!DOCTYPE svg PUBLIC "-//W3C//DTD SVG 20010904//EN"
 "http://www.w3.org/TR/2001/REC-SVG-20010904/DTD/svg10.dtd">
<svg version="1.0" xmlns="http://www.w3.org/2000/svg"
 width="512.000000pt" height="512.000000pt" viewBox="0 0 512.000000 512.000000"
 preserveAspectRatio="xMidYMid meet">

<g transform="translate(0.000000,512.000000) scale(0.100000,-0.100000)"
fill="#000000" stroke="none">
<path d="M145 5085 c-51 -18 -120 -91 -134 -141 -8 -27 -11 -571 -11 -1815 l0
-1777 27 -52 c17 -31 45 -65 71 -84 l44 -31 272 -3 c250 -3 274 -1 293 15 12
10 24 31 27 46 5 22 1 34 -23 57 l-29 30 -246 0 -245 0 -20 26 -21 27 0 1468
0 1469 1775 0 c1762 0 1775 0 1795 20 28 28 26 81 -3 108 l-23 22 -1052 0
-1052 0 0 240 0 240 1665 0 1666 0 24 -25 c25 -24 25 -24 25 -240 l0 -215
-479 0 c-532 0 -514 2 -527 -67 -5 -26 -1 -37 19 -57 l26 -26 481 0 480 0 0
-1470 0 -1471 -25 -24 -24 -25 -286 0 c-157 0 -285 3 -285 6 0 3 9 40 19 82
35 138 35 156 8 187 -28 33 -76 38 -106 11 -12 -11 -25 -43 -31 -75 -86 -443
-406 -788 -836 -901 -382 -100 -798 14 -1079 295 -341 341 -430 852 -224 1284
333 699 1238 869 1805 338 149 -139 262 -334 314 -543 34 -134 59 -171 109
-159 53 13 64 33 58 107 -6 75 -60 245 -108 340 -87 174 -235 350 -391 469
-95 71 -270 160 -381 193 -253 77 -541 75 -785 -6 -348 -115 -648 -392 -782
-720 l-24 -58 -662 -2 -663 -3 -22 -22 c-32 -31 -30 -80 5 -110 l27 -23 635 0
634 0 -5 -22 c-3 -13 -9 -43 -13 -68 l-8 -45 -630 -3 c-697 -2 -653 2 -669
-64 -6 -22 -1 -33 23 -58 l30 -30 620 0 619 0 6 -97 c3 -54 18 -143 32 -198
14 -55 25 -101 25 -102 0 -2 -200 -3 -444 -3 l-445 0 -27 -23 c-34 -30 -36
-83 -3 -109 20 -17 58 -18 503 -18 l481 0 34 -63 c86 -156 247 -335 394 -436
150 -102 341 -181 517 -212 108 -20 345 -17 450 5 157 32 307 91 453 178 l38
22 71 -71 72 -72 -17 -36 c-19 -40 -22 -100 -7 -141 6 -15 43 -60 83 -102 105
-109 171 -133 252 -92 l39 20 82 -80 c91 -89 117 -98 159 -55 27 26 31 54 14
87 -10 18 -4 28 49 80 52 53 62 59 80 49 33 -17 61 -13 87 14 43 42 34 68 -56
160 l-81 83 16 30 c42 81 8 162 -111 272 -92 84 -122 91 -238 55 -15 -4 -36
10 -90 65 l-70 70 18 28 c10 15 31 53 47 85 l30 57 338 0 338 0 54 33 c42 25
61 44 82 86 l28 53 0 1777 c0 1222 -3 1788 -11 1814 -14 53 -93 132 -144 146
-28 8 -724 11 -2410 11 -2018 -1 -2376 -3 -2410 -15z m1295 -375 l0 -240 -645
0 -645 0 0 215 c0 216 0 216 25 240 l24 25 621 0 620 0 0 -240z m3065 -4030
l60 -60 -165 -165 -165 -165 -65 65 -65 65 160 160 c88 88 164 160 170 160 6
0 37 -27 70 -60z"/>
<path d="M475 4760 c-22 -25 -22 -76 1 -101 24 -26 85 -25 109 1 23 26 23 74
0 100 -24 27 -85 27 -110 0z"/>
<path d="M737 4762 c-23 -25 -22 -85 2 -106 30 -28 80 -24 108 8 28 33 29 56
2 90 -25 32 -86 37 -112 8z"/>
<path d="M996 4758 c-56 -80 48 -167 111 -94 28 33 29 56 2 90 -27 35 -90 37
-113 4z"/>
<path d="M570 4010 c-30 -30 -27 -83 6 -109 24 -19 40 -21 165 -21 l139 0 0
-247 c0 -216 -2 -252 -18 -283 -25 -50 -75 -80 -132 -80 -92 0 -150 67 -150
172 0 71 -29 111 -78 111 -58 0 -72 -24 -72 -123 0 -77 4 -94 30 -148 56 -111
144 -166 270 -166 59 0 85 5 124 23 59 29 117 85 148 143 22 42 23 51 26 375
3 323 2 333 -18 353 -19 19 -32 20 -220 20 -187 0 -201 -1 -220 -20z"/>
<path d="M1320 3998 c-74 -38 -130 -104 -152 -177 -9 -32 -13 -111 -13 -261 0
-242 6 -266 80 -348 86 -96 240 -127 351 -69 28 14 72 49 98 78 71 78 78 116
74 372 -3 191 -5 216 -24 258 -53 113 -141 172 -269 177 -75 4 -84 2 -145 -30z
m218 -145 c64 -48 67 -58 70 -263 3 -171 2 -193 -17 -234 -26 -59 -69 -86
-139 -86 -48 0 -57 4 -95 39 l-42 40 -3 213 c-3 209 -3 214 20 248 46 69 144
89 206 43z"/>
<path d="M1912 4007 c-22 -23 -22 -26 -22 -436 l0 -412 25 -24 c24 -25 27 -25
188 -25 235 0 298 24 361 141 26 46 29 63 30 139 0 74 -3 94 -27 143 -16 31
-39 65 -53 76 l-24 19 20 36 c12 19 24 59 27 89 11 106 -43 203 -139 251 -49
25 -60 26 -208 26 -151 0 -157 -1 -178 -23z m327 -143 c30 -21 51 -71 44 -107
-3 -15 -19 -38 -35 -52 -27 -23 -38 -25 -119 -25 l-89 0 0 100 0 100 88 0 c65
0 94 -4 111 -16z m72 -373 c26 -27 29 -36 29 -96 0 -60 -3 -69 -29 -96 -29
-29 -30 -29 -150 -29 l-121 0 0 125 0 125 121 0 c120 0 121 0 150 -29z"/>
<path d="M4248 4010 c-67 -36 -118 -117 -118 -190 0 -57 23 -106 70 -151 57
-56 118 -74 190 -58 l43 10 54 -53 c44 -44 59 -52 89 -52 44 0 74 31 74 76 0
22 -14 44 -54 86 -43 46 -52 61 -45 77 24 60 1 155 -49 208 -63 67 -176 88
-254 47z m135 -142 c28 -22 32 -63 8 -87 -34 -34 -86 -26 -102 16 -21 56 46
107 94 71z"/>
<path d="M2850 3390 c-30 -30 -27 -83 6 -109 27 -21 31 -21 908 -21 945 1 904
-2 925 51 11 30 -8 83 -34 93 -9 3 -415 6 -901 6 -871 0 -884 0 -904 -20z"/>
<path d="M4561 3054 c-28 -35 -26 -69 4 -99 42 -43 105 -29 124 26 27 79 -76
138 -128 73z"/>
<path d="M3005 2660 c-418 -59 -740 -369 -806 -774 -17 -106 -7 -300 20 -394
92 -320 332 -558 656 -653 70 -21 101 -24 245 -23 150 0 173 3 253 27 441 136
723 559 667 1000 -50 397 -344 721 -728 802 -90 19 -232 26 -307 15z m291
-170 c146 -35 264 -101 370 -207 146 -145 224 -337 224 -549 0 -351 -235 -655
-581 -750 -88 -25 -299 -25 -387 -1 -237 66 -433 237 -522 457 -15 36 -30 77
-34 93 l-6 27 299 0 c277 0 300 1 322 19 32 26 32 86 0 112 -22 18 -45 19
-334 19 l-310 0 6 83 c4 45 9 92 13 105 l6 22 293 0 294 0 20 26 c28 36 26 60
-8 95 l-29 29 -256 0 c-141 0 -256 3 -256 7 0 9 49 92 72 123 79 104 222 214
338 260 134 53 321 65 466 30z"/>
<path d="M568 2440 c-24 -25 -29 -36 -23 -58 3 -15 15 -36 26 -47 19 -19 33
-20 419 -20 386 0 400 1 419 20 11 11 23 32 26 47 6 22 1 33 -23 58 l-30 30
-392 0 -392 0 -30 -30z"/>
</g>
</svg>
